<?xml version="1.0" encoding="utf-8"?>
<!-- Generator: Adobe Illustrator 28.0.0, SVG Export Plug-In . SVG Version: 6.00 Build 0)  -->
<svg version="1.1" id="Layer_1" xmlns="http://www.w3.org/2000/svg" xmlns:xlink="http://www.w3.org/1999/xlink" x="0px" y="0px"
	 viewBox="0 0 908 800" style="enable-background:new 0 0 908 800;" xml:space="preserve">
<style type="text/css">
	.st0{fill:#6B7280;stroke:#6B7280;stroke-width:13;stroke-miterlimit:10;}
	.st1{fill:#6B7280;stroke:#6B7280;stroke-width:55;stroke-miterlimit:10;}
</style>
<metadata><?xpacket begin="﻿" id="W5M0MpCehiHzreSzNTczkc9d"?>
<x:xmpmeta xmlns:x="adobe:ns:meta/" x:xmptk="Adobe XMP Core 9.1-c001 79.675d0f7, 2023/06/11-19:21:16        ">
   <rdf:RDF xmlns:rdf="http://www.w3.org/1999/02/22-rdf-syntax-ns#">
      <rdf:Description rdf:about=""
            xmlns:xmp="http://ns.adobe.com/xap/1.0/"
            xmlns:xmpGImg="http://ns.adobe.com/xap/1.0/g/img/"
            xmlns:xmpTPg="http://ns.adobe.com/xap/1.0/t/pg/"
            xmlns:stDim="http://ns.adobe.com/xap/1.0/sType/Dimensions#"
            xmlns:xmpG="http://ns.adobe.com/xap/1.0/g/"
            xmlns:dc="http://purl.org/dc/elements/1.1/">
         <xmp:CreatorTool>Adobe Illustrator 28.0 (Windows)</xmp:CreatorTool>
         <xmp:CreateDate>2024-11-16T14:46:00+01:00</xmp:CreateDate>
         <xmp:Thumbnails>
            <rdf:Alt>
               <rdf:li rdf:parseType="Resource">
                  <xmpGImg:width>256</xmpGImg:width>
                  <xmpGImg:height>184</xmpGImg:height>
                  <xmpGImg:format>JPEG</xmpGImg:format>
                  <xmpGImg:image>/9j/4AAQSkZJRgABAgEASABIAAD/7QAsUGhvdG9zaG9wIDMuMAA4QklNA+0AAAAAABAASAAAAAEA&#xA;AQBIAAAAAQAB/+4ADkFkb2JlAGTAAAAAAf/bAIQABgQEBAUEBgUFBgkGBQYJCwgGBggLDAoKCwoK&#xA;DBAMDAwMDAwQDA4PEA8ODBMTFBQTExwbGxscHx8fHx8fHx8fHwEHBwcNDA0YEBAYGhURFRofHx8f&#xA;Hx8fHx8fHx8fHx8fHx8fHx8fHx8fHx8fHx8fHx8fHx8fHx8fHx8fHx8fHx8f/8AAEQgAuAEAAwER&#xA;AAIRAQMRAf/EAaIAAAAHAQEBAQEAAAAAAAAAAAQFAwIGAQAHCAkKCwEAAgIDAQEBAQEAAAAAAAAA&#xA;AQACAwQFBgcICQoLEAACAQMDAgQCBgcDBAIGAnMBAgMRBAAFIRIxQVEGE2EicYEUMpGhBxWxQiPB&#xA;UtHhMxZi8CRygvElQzRTkqKyY3PCNUQnk6OzNhdUZHTD0uIIJoMJChgZhJRFRqS0VtNVKBry4/PE&#xA;1OT0ZXWFlaW1xdXl9WZ2hpamtsbW5vY3R1dnd4eXp7fH1+f3OEhYaHiImKi4yNjo+Ck5SVlpeYmZ&#xA;qbnJ2en5KjpKWmp6ipqqusra6voRAAICAQIDBQUEBQYECAMDbQEAAhEDBCESMUEFURNhIgZxgZEy&#xA;obHwFMHR4SNCFVJicvEzJDRDghaSUyWiY7LCB3PSNeJEgxdUkwgJChgZJjZFGidkdFU38qOzwygp&#xA;0+PzhJSktMTU5PRldYWVpbXF1eX1RlZmdoaWprbG1ub2R1dnd4eXp7fH1+f3OEhYaHiImKi4yNjo&#xA;+DlJWWl5iZmpucnZ6fkqOkpaanqKmqq6ytrq+v/aAAwDAQACEQMRAD8A9TySRxxtJIwSNAWd2NAA&#xA;NyST0AxV4b+ZH5pXOqzvpmhzPBpkZIluUJR5yPAihEft375dGHewMmE6T5l1/SJxNp1/NbtUkqrE&#xA;oxO55I1Vb6RkiAWNvTfLX56KeMHmG04np9dtRt/soj+tT9GQOPuZCT0/SNc0jWLf6xpl3HdRbcjG&#xA;ala9mU/Ep9iMrIpnaMlljijaSVxHGgLO7EBQB1JJwKwPzL+cnlnS+UOn11W7FR+6PGFT7ykGv+xB&#xA;yYgWJk8q8xfmX5s1xmWW7Npanpa2tYkp/lMDzb6TTLBEBiSgPLfnDXPL9+l1ZXDlOVZrZ2JilBNS&#xA;GWv49cJiCgF9GeWPM+meY9Kj1CxfY0E8JPxxSU3Rv4HvlBFNgKbYEuxV2KuxV2KuxV2KuxV2KuxV&#xA;2KuxVLPMfmPTPL+lyahqEnGNNo4x9uRz0RB3JwgWgl85+afOWt+Y757i9mZbcn9xZox9KNR0AXuf&#xA;FjucvEaYEojy7+YnmvQnAtrxp7avxWtzWWM/Kp5L/sSMBiCoL1Xy1+c/l3UuEGqKdLujtyc84Cf+&#xA;MgA4/wCyFPfKzAshJn8M0M8SywussTjkkiEMrA9wRscgyQmr67o+j231nU7uO1i/ZMh3YjsqirMf&#xA;YDCBa28v8y/noPjg8vWviPrt0PxSIH7uR+jLBj72Bk8y1bzFrmrzmbUr6a5cmtGYhBT+VBRV+gZM&#xA;ABjbNfy2/NC50m5XTdbnebSpaLHO5Ltbt2NTuY/Edu2RlC2Qk90jkjkjWSNg8bgMjqagg7ggjqDl&#xA;LN4j+av5jyajPPoGltw0+Fyl5OOszod1H+QpH0/LLoR6sJF5nk2LsVdiqvY399YXK3NlcSW1wn2Z&#xA;YmKMPpGNKmGt+bvMmtqq6pfy3EaABYtkj27lECqT7kVwCICkpRhV2KuxVOfKvmrVPLWqLfWLVU0W&#xA;4t2PwSp/K38D2wEWoL6T0DXbHXdJt9TsWJgnFeLbMrA0ZWHiCMoIptBTDArsVdirsVdirsVdirsV&#xA;dirsVQWtaxZaNpdxqd6xW2tl5PTckk0VVHizEAYQLV82eb/N2p+ZtUa8u24wpVbW2B+CJK9B4sf2&#xA;j3+7L4xprJtI8KHYq7FU10XzV5i0Tn+i7+W2V684wQyGvfgwZa+9K4CAVtA32oX1/cvdX08lzcP9&#xA;qWVizH6T2w0qhirsVdir0v8AKn8xpdNuItB1Ry+nTuEtJSf7h2NOJr+wxP0ffkJx6solgnmDR73R&#xA;9YutOvFYTQSMOTftrX4XB7hhvkwbYlL8VZWnnxV8ox+Xjo9nIYy/+lyLyb4v2wopST/L5fRkeHe0&#xA;2xTJIdirsVdirI/JfnFfLV4050y2v+W/OUUmSn++5Pi4/wDA4JRtINJHqF39cvp7v0o4PXkaT0YR&#xA;xjTka8VHYDCEKGKvov8AKbR77S/JsEd6himuZHuBEwoyo9AoI7VC8vpyiZ3bI8mY5FLsVdirsVdi&#xA;rsVdirsVdirsVYp+aGj3ureTb23slMlxGUnES9XEbcmUAdTTcDxyUDRQeT5uy9rX28vozxzcFk9N&#xA;lf05ByRuJrxYdwe+Ksj85+dV8yyxuNLtbARgASRLWZgBSjSUWqjsKbZGMaSSxnJIdirsVdirK38+&#xA;B/KMvl79D2cfqFf9LjTi3w/tld6yf5denbI8O9ptimSQmHl/R73WdYtdOs1YzTyAcl/YUGrOT2Cj&#xA;fEmlD6F89eRtP806dwakOpQA/U7um4PXg/ih/DqMojKmwi3zpqemX2l301hfwtBdQNxkjb8CD3B6&#xA;gjLwWtC4qidP0zUNSuVtrC2kurhukcSlj8zToPc4kq9K8tfkbqFwEn1+5FpGaE2kBDy/Jn3Rfo5Z&#xA;WcncyEU81/8AI3RbiLnotw9jcKKenKTLExA7k/GpPjU/LAMiTF5b5i8k+ZfL7n9I2bLBWi3Ufxwn&#xA;w+MdK+DUOWCQLEhIsKHYq9c/Kz8sWLQ+YNcioopJYWTjr3WWQH71H05XOfQMoh7BlTN2KuxV2Kux&#xA;V2KuxV2KuxV2KuxV2KvKPzU/LITrLr+hw/6QKvf2cY+2OplQD9r+YDr169bIT6MZB41lrB2Kp35d&#xA;8l+Y/MDj9G2bPBWjXT/BCvjVz1p4CpwGQCgPU/L35HaNbx+prk7X1wy0MMJaKFSfBhR2p2O3yys5&#xA;O5mIpN5l/I29h5T+X7kXMe5+p3BCSD2WTZG+njhGTvQYvNNS0vUdMumtdQtpLW4XrHKpU08RXqPc&#xA;ZYCxQuKorStLvtV1CGwsYjNdTsFjQfiT4ADcnEmlfRnkXyLp/lbT+CUm1GYD63d03J68Er0Qfj1O&#xA;USlbYBTJsiljXnTyDo/mqBPrJNvewikF5GAWA/lYH7S96fceuSjKkEWxTSvyH0e3nEmpajLfRrv6&#xA;MaC3U+zHlI1PkRkjkRwvRNK0bStJthbabax2sIpVY1AqR3Y9WPucgTbJGYFdirTojqUdQysKMpFQ&#xA;QfEYqwfzF+T/AJU1ZjNbI2l3J3LWwHpknxiPw/8AA0yYmQxMUD5a/JTR9Lv0vdQu21NoWDwwmMRR&#xA;chuC68pC1D2rTxxORRF6PkGTsVdirsVdirsVdirsVdirsVdirsVdirsVee+avya0fWb976yujpk0&#xA;x5TosYliZj1YJyj4k998mJ0xMVfy9+TnlXS3E12G1S4HT6wAIh8ohsf9kTiZlRFnSIkaKkahEUUV&#xA;VFAAOgAGQZN4q7FUJqekaZqtsbbUbWO6gO/CVQ1D4g9QfcYQVed6r+RGi3E5k03UJbGNjX0XQTqP&#xA;ZSWjanzJyYyMeFlXk3yFo3laF/qvKe8mFJryUDmQP2VA+ytd6ffkZStIFMlyKXYq7FXYq4kAVOwH&#xA;U4qls3mby3DII5tVs45CaBHuIlavhQthootGWt9ZXaF7S4iuEHVonVx96k4Eq2KuxV2KuxV2KuxV&#xA;2KuxV2KuxV2KuxV2KuxV2KuxV2KuxV2KuxVCXusaTYml7e29qev76VI9v9kRhpVlpruh3jBbTUba&#xA;5ZvsrFNG5Py4k40to7ArsVdirsVdirsVY950866b5W04XFz+9upqi0tFNGkYdST2UV3OSjG0E08D&#xA;8y+efMnmGVzfXTLbE/DZREpCo7DiD8Xzapy4RAYEpBhQqW11c2syz20zwTJ9mWNijD5MtDir0zyX&#xA;+c9/ayx2fmMm6tD8IvgP30fu4H2x+PzyuUO5kJPaLe4guYI7i3kWWCVQ8ciEFWUioIIypmqYq7FX&#xA;Yq7FXMwUFmNFG5J6AYqx/UvzA8macStzq0HNeqREzMD4ERByMkIlFhj11+eHk2EkRR3dz1oY4lVf&#xA;+Sjofww+GUcQS9/z70UN8GmXLL2LNGD9wJw+GvE5Pz70UsOel3IXuQ8ZP3bY+GvEj7X88fJ8pAmi&#xA;vLc9y8aMv/COx/DB4ZXiZBpv5ieStRIW31aBXbYJMTAa+H70JX6MBiU2GQo6OodGDKwqrA1BB8Dk&#xA;Ut4q7FXYq7FVG9vbSxtJbu7lWC2gUvLK5oFAxV4X50/N7WNVmktdGkfT9NBKiRDxnlHizDdAfBfp&#xA;OXRgwMnnzu8jl3Yu7GrMxqSfcnJsWsVZX5X/ADM80aBIiLcG9sQfis7hi60/yGNWT6NvY5EwBSC9&#xA;48q+bNJ8y6cLywejJRbi3b+8icitG9vAjY5SRTMG05wJdirsVUb68t7GznvLl/Tt7dGllc9lQVOK&#xA;vl/zV5jvPMWt3Gp3JI9Q8YIq1EcQ+wg+Q6+J3zIApqJSnCrsVdirsVeqfkv50kgvP8NXslbafk+n&#xA;sx+xJ9po9/2XFSP8r55XOPVlEvaMqZuxVTuLiC2gee4kWGCMFpJZCFVVHUknYYq8u81fnfa27Pbe&#xA;XYBdOKg3s4IiB/yE2ZvmafTlgx97EyeXa15s8x625bU7+WdCa+jy4xD5RrRB92WAAMLSnCrsVdir&#xA;sVdirsVTPRvM2v6LIH0y+ltt6mNWrGT/AJUbVQ/SMBAK29Q8q/njFIyW3mOAQk7fX7cEp/s49yPm&#xA;tfllZx9zISeqWl3a3lvHc2sqT28o5RyxsGVh7EZWzVcVdirxH86fOMl3qP8Ah60kpaWZDXhU/bmI&#xA;qFPtGPx+WWwj1YSLzHLGLsVdirsVTvyf5pvPLWtw6hAS0NeF3AOkkRPxL8x1X3wSFqDT6bs7y2vb&#xA;SG7tnElvcIskUg6FWFQcx21WxV2KvOvzv1trPy1Dp0bcZNSlo47mKGjN/wAMUyeMbsZPCMuYOxV2&#xA;KuxV2Kqtrcz2tzDdQOUngdZInHUMhqp+8Yq9oi/PnQfTT1dPuvVoOfH0+PKm9Kv0yrwyz4l//K+f&#xA;Ln/VvvP+SX/NePhleJ5356/MPU/NFyYwWttJjasFmD1p+3LT7TfgO3iZxjTEm2J5JDsVdirsVdir&#xA;sVdirsVdirsVZR5H8+6n5XvgULT6ZKf9Jsidj/lpX7Lj8e+RlG0g09I/5Xz5c/6t95/yS/5ryHhl&#xA;lxLX/PnQODenp12XoeAb0wK9q0fHwyvE8Wu7qe7uprqduc87tJK56lnPIn7zlrBSxV2KuxV2KuxV&#xA;7p+R+vNeeXrjSpWrLpslYgevozVYD6HDfhlWQbs4l6RlbJ2KvCPzy1Az+arezB+CztlqP8uVix/4&#xA;Xjl2MbMJPOsmxdiq6KGWV+ESl3oW4qKmigsfuAxVbirsVdirsVdirsVdirsVdirsVdirsVdirsVd&#xA;irsVdirsVdirsVdirsVXSwyxMFkUoxVXAIoeLqGU/SpBGKrcVdirPvyU1E23nMW1fhvreWLj/lIB&#xA;KD90ZyGQbJjze/ZS2OxV82/mlcm48+asxOyOkYHh6cSL/DL4cmuXNiuSQ7FWW/lcNLHm+GTU5ooL&#xA;WOGclpmCIeUTIRVqD7LE5GfJMWKTIqSuisHVWIVx0IBpX6ckhbirsVdirsVdirsVR+iaHqmt6glh&#xA;psBnuH3oNlVR1ZmOyqPHEmlAet+X/wAi9MhRZdcunupurW9ufTiHsWI5t9HHKjk7mYizbT/I/lDT&#xA;wBa6RbKV+y7xiVxT/Lk5N+OQMimk4ht7eEUhiSIdKIoUUHywJblggmHGWNZF8HAYb/PFUo1DyV5S&#xA;1BSLrSbVierrGsb/APBpxb8cIkUUwvXvyM0W4RpNFuZLGb9mGYmWE+1ftr86t8smMiDF5Hr/AJd1&#xA;bQdQax1OExTLujDdHXsyN3H+ZywG2BCW4VdirsVdirsVdirsVZf+aCaQvmG3/RdzFdQfUbZXkhZX&#xA;XlGpjAqvf00U5GHJMmIZJDsVZD+Xtwbfzto0gNOVyke+397+77/62CXJI5vpvMdsdir5i8/lz511&#xA;rnWv1qSldtgfh/DMiPJrPNIMKHYq7FXYq7FXYq7FXYq7FXYq9Q/IbUI4tZ1KwYDndQJKjnr+4Ygq&#xA;Pn6tfoyvIGUXtmVM3Yq7FXYq7FXYq8b/AD81CJrvSdOAHqxRyXDt34yEIo/5JtluMMJPJ8sYuxV2&#xA;KuxV2KuxV2KuxV2KuxVNvKLFfNeisAWK39sQo6mky7YJclD6mzHbXYq8O/OjyldWmsHzBbxl7G9C&#xA;i5ZRtHMoC/F4BwBQ+NcugejCQeaZNi7FXYq7FXYq7FXvn5VeR00vy+1zqtqjX2oMJTFMgZo4lFI1&#xA;IYbMalj88pnLdnEPMPzT0ZNL86XscSCOC5C3MKgUFJB8VAP8sNlkDsxlzYlkkOxVkHkHWBpPm/TL&#xA;xm4xesIpj24TD02J+XKuCQsJD6czHbHYq7FXYq7FXYq+a/zM1f8ASnnTUZVblFA/1aLwpCOBp83D&#xA;HL4DZrPNi+SQ7FWR/l5pA1bzlplq68oVl9eYEVBSEGQg+zceP04JGgkc3sX5l+R4tY8uONLtY01C&#xA;0b14UiRVaQAEPHsBuQaj3GVRlRZEPntlZGKsCrKaMp2II7HLmDWKuxV2KuxV2Ks//J/ylc6n5gi1&#xA;eWMjTtNb1PUI2ecD4EX/AFT8R/tyEzsmIe+5S2OxVTuLeC5geC4jWaCQFZIpAGVlPUEHY4q8h88f&#xA;kw8fqX/lkF03aTTWNWH/ABhY9f8AVO/gT0y2M+9gYvJ5YpIpGilQxyISrowIYEbEEHocsYrcVdiq&#xA;YaH5f1fXL1bPTLdp5j9ojZEH8zsdlHzxJpQHuPkj8qNI0ER3t/xv9WX4g5FYYj/xWp6kfzH6KZTK&#xA;dsxFneQZPJfz60jlDpmsIPsM1rMfZvjj/U+WYywk8dy1i7FXYq+ofJWtjW/K+n6gW5SyRBLg9/Vj&#xA;+CT72WuY8hRbAU7wJdirsVdiqV+aNZTRfL1/qbEBraFmir0Mh+GMfS5AwgWUF8sO7OxdyWZiSzHc&#xA;knqcyGtrFXYq9Y/IXSOV5qWruu0SLawt7ueb0+QRfvyvIWUXsmVM2E+d/wArtH8xB7u2pY6sd/rC&#xA;j4JT/wAWqP8AiQ3+eTjOmJi8L17y7rGg3xs9Tt2gl6o3VHX+ZGGzDLQbYEJbhV2Ktoju6oilnYhV&#xA;VRUknYAAYq9S8kfkzc3XC/8AMga3t9mTTwaSuP8Ai0j7A9h8XyyuU+5kIvY7KytLG1jtbOFILaIc&#xA;Y4owFUD5DKmatirsVdirsVYp5z/LnRPM8bSuPqmpgUjvoxUmnQSLtzH4++SjKkEW8mv/AMmvPNvO&#xA;Ut7aK9j7SxTRqKfKUxnLeMMOEpn5d/JDXbmdJNckSwtQfjijZZJ29gV5Rr86n5YDkHRIi9i0TQdJ&#xA;0SyWy0y2W3gG7cd2Zv5nY7sfnlRNs6R+BXYqx/z9oh1nylqNki8p/TMtuAKn1IvjUD/W48fpyUTR&#xA;QXzHl7W7FXYq9b/InzCFkvdBmbZ/9KtAT3FFlUfRxP35XkHVlEvYcqZuxV2KuxV5N+e3mAJb2Wgw&#xA;t8Up+tXQB/ZWqxqfmeR+gZZjHVhIvHMtYuxV2KvpL8sdE/RHkywjZeM90v1uf/WmoVr8k4jKJmy2&#xA;DkyrIpdiqB1rQ9K1qxay1K3W4gbcBvtK3TkjDdW9xhBpaeOeYvyQ122uGfQ5Ev7Qn4IpGWOdfYlu&#xA;MbfOo+WWjIOrAxSqw/J7zzdTBJrSOzjrRpppYyB47RmRvwwmYRwl6x5L/LbRPLSrPT65qlPivJB9&#xA;mvURLvwH4++VSlbMCmXZFLsVdirsVdirsVdirsVdirsVdirsVY95n8+eWvLilb+553VKrZQ0eY+F&#xA;VrRfmxGSESUEvm7VLi1udSurm1hNvbTSvJDATy4KzEhagDpl4a0LirsVR+haxdaNrFpqdsf3trIH&#xA;C9Ay9GQ+zKSDiRah9RaRqlnqumW2o2b87a5QPGe4r1U+6nY++Y5FNqLwK7FVDUL+10+ynvbtxHbW&#xA;yNJK57Kor9/hiFfLvmbXrnXtcu9UuNmuHrHH14RrsifQozIApqJSzCrsVVLZ4UuYnnjMsCurSxA8&#xA;SyA1ZQ1DSo70xV9JeVPzB8seYUSGzm+r3YAH1GaiSCn8n7Lj/VP3ZQYkNgLJsil2KuxV2KuxV2Ku&#xA;xV2KuxV2KuxV2KuxV2KuxV2KtMyqpZiFVRUk7AAYq8P89fm/qd7cy2GgSm009CUN2m001NuSt1Rf&#xA;Cm/v2y6MO9gZPNXd5HZ5GLuxqzMakk9SScmxaxV2KuxV2Kss8l/mPrXlYNbxKt3pztze0kJFD3Mb&#xA;ivEn5Ee2RlG0g09Ksfzz8qzIPrVvdWsnccVkT6GVq/8AC5X4ZZcS69/PLynCh+rQXV1JT4QEVFr7&#xA;szVH/A4+GV4nm/nX8zda8zxfUyi2Wm8gxtYyWLkGq+o5A5U8AAMsjCmJNsPySHYq7FXYq5WKkMpo&#xA;RuCOoOKvQ/JH5uavpdxFaa1K99pZIUyv8U0Q/mDdXA7g/RkJQZCT3eGaKaJJomDxSKHjdTUMrCoI&#xA;PuMpZrsVdirsVdirsVdirsVdirsVdirsVdirsVdirFvzQv5LLyLqssTcZJESAEeE0ixv/wAIxyUB&#xA;uiXJ82Ze1uxV2KuxV2KuxV2KuxV2KuxV2KuxV2KuxV2KuxV9E/lDezXXkayEp5G3eSBWPXgrkr9w&#xA;NMpnzbI8mZ5BLsVdirsVdirsVdirsVdirsVdirsVdirsVYV+cX/KBXv/ABkg/wCTq5OHNjLk+eMu&#xA;YOxV2Ks08qflV5i8wWgvuUdlYyKTDNNUmQ9uKLvxr3P0VyJmAkRYpqWmahpl5JZX8D211EaPE4of&#xA;mOxB7EZIFCGxV2KuxV2KuxV2KojTtOvdRvIrKxhae6mYLHEgqST+oeJOJKsv8yflH5m0Ww+vqY72&#xA;3jj9S7MJIaLitXJVqclX+YfcMiJgpMWEZJDsVdir6B/Jb/lB4v8AmIm/WMpnzZx5M7yDJ2KuxV2K&#xA;uxV2KuxV2KuxV2KuxV2KuxV2KsK/OL/lAr3/AIyQf8nVycObGXJ88ZcwdirsVfTP5c/8oPo//MOP&#xA;1nKJc2wckX5k8paH5jtPq+p24crX0rhPhljJ/kf+B29sANKQ8g8xfkp5isWaXSXXU7bqEBEcwHur&#xA;Hi30H6MtGQMTFgd9pmpafL6V9azWsn8kyNGf+GAydsUNirsVV7LT7++l9GytpbqU/wC64UaRvuUH&#xA;G1Z15c/JfzLqLJLqZXS7U7kPR5iPaNTQf7Ij5ZAzDIRev+V/JegeWrcx6dB++cUmu5KNM/zagoPZ&#xA;aDKjIlkAq+cf+UR1z/tn3X/JlsY81L5azIa3Yq7FX0D+S3/KDxf8xE36xlM+bOPJneQZOxV2KuxV&#xA;2KuxV2KuxV2KuxV2KuxV2KuxVhX5xf8AKBXv/GSD/k6uThzYy5PnjLmDsVdir6Z/Ln/lB9H/AOYc&#xA;frOUS5tg5MjyKXYqtliilQxyoskbbMjAEH5g4qlc/lHyrOSZtHsnZurG3i5f8FxrhsopqHyf5Tho&#xA;YtGsVK9G+rxct/8AKK1x4itJpDBDCgjhjWOMdEQBR9wwJX4q7FUo84/8ojrn/bPuv+TLYY80F8tZ&#xA;kNbsVdir6B/Jb/lB4v8AmIm/WMpnzZx5M7yDJ2KuxV2KuxV2KuxV2KuxV2KuxV2KuxV2KsY/MzTp&#xA;tQ8j6rBCvKVI1mUUqf3LrI1PfipyUTug8nzVl7W7FXYq+pfJ+nS6d5W0uymBWaG2jEqnqHK8mH0E&#xA;0zHkd2wJvgS7FXYq7FXYq7FXYq7FUDr1k9/oeo2KfburaaBfnJGVH68IUvlJ0eN2jdSroSrKdiCN&#xA;iCMyGprFXYq+i/yjsJ7PyNZesOLXDSXCqeoR2PA/7JQG+nKJndsjyZjkUuxV2KuxV2KuxV2KuxV2&#xA;KuxV2KuxV2KuxVxAIodweoxV4v55/Ju/ju5b/wAtoJ7WQlmsKhXjJ6iOtAy+A6j3y2M+9gYsGHkj&#xA;ziZfSGiX3KtKm3kC/wDBEcfxyfEGNPRvy+/KC5tb2LVfMSqGhIe308EP8Y3DSkVXbsoJ9/DK5T7m&#xA;Qi9bytm7FXYq7FXYq7FXYq7FXYq7FXln5i/lJNqV5LrGgcBdTEvdWTEIHc9XjY7Bj3B+dcsjPvYm&#xA;LzGTyP5xjlMTaJelgaVWCRl/4NQV/HLOIMKZj5M/JrVbu6juvMKfU7FCG+qVBmlp+yeJPBfHv7d8&#xA;jKfcyEXt0caRxrHGoSNAFRFFAABQADKWa7FXYq7FXYq7FXYq7FX/2Q==</xmpGImg:image>
               </rdf:li>
            </rdf:Alt>
         </xmp:Thumbnails>
         <xmpTPg:MaxPageSize rdf:parseType="Resource">
            <stDim:w>320.322212</stDim:w>
            <stDim:h>282.222222</stDim:h>
            <stDim:unit>Millimeters</stDim:unit>
         </xmpTPg:MaxPageSize>
         <xmpTPg:NPages>1</xmpTPg:NPages>
         <xmpTPg:HasVisibleTransparency>False</xmpTPg:HasVisibleTransparency>
         <xmpTPg:HasVisibleOverprint>False</xmpTPg:HasVisibleOverprint>
         <xmpTPg:PlateNames>
            <rdf:Seq>
               <rdf:li>Cyan</rdf:li>
               <rdf:li>Magenta</rdf:li>
               <rdf:li>Yellow</rdf:li>
               <rdf:li>Black</rdf:li>
            </rdf:Seq>
         </xmpTPg:PlateNames>
         <xmpTPg:SwatchGroups>
            <rdf:Seq>
               <rdf:li rdf:parseType="Resource">
                  <xmpG:groupName>Domyślna grupa próbek</xmpG:groupName>
                  <xmpG:groupType>0</xmpG:groupType>
               </rdf:li>
            </rdf:Seq>
         </xmpTPg:SwatchGroups>
         <dc:format>image/svg+xml</dc:format>
      </rdf:Description>
   </rdf:RDF>
</x:xmpmeta>
                                                                                                    
                                                                                                    
                                                                                                    
                                                                                                    
                                                                                                    
                                                                                                    
                                                                                                    
                                                                                                    
                                                                                                    
                                                                                                    
                                                                                                    
                                                                                                    
                                                                                                    
                                                                                                    
                                                                                                    
                                                                                                    
                                                                                                    
                                                                                                    
                                                                                                    
                                                                                                    
                           
<?xpacket end="w"?>
	</metadata>
<g>
	<g>
		<path class="st0" d="M208.1,169.7l68.6,31.3c2.1,1,4.4,1.5,6.7,1.5c4.4,0,8.7-1.8,11.8-4.9l33.3-34.4c6.2-6.4,6.2-16.4,0-22.8
			l-33.3-34.4c-4.8-4.9-12.3-6.4-18.5-3.4l-68.6,31.3l-68.6-31.3c-6.2-3-13.8-1.5-18.5,3.4l-33.3,34.4c-6.2,6.4-6.2,16.4,0,22.8
			l33.3,34.4c4.8,4.9,12.3,6.4,18.5,3.4L208.1,169.7z M279.6,136.9l14.3,14.8l-14.3,14.6l-32.1-14.6L279.6,136.9z M122,151.7
			l14.3-14.8l32.1,14.8l-32.1,14.6L122,151.7z"/>
		<path class="st0" d="M878.3,140.2L845,105.8c-4.9-4.9-12.3-6.4-18.7-3.4l-67.9,31.3l-67.9-31.3c-6.4-3-13.8-1.5-18.7,3.4
			l-33.3,34.4c-6.2,6.4-6.2,16.4,0,22.8l33.3,34.4c4.9,4.9,12.3,6.4,18.7,3.4l67.9-31.3l67.9,31.3c2.3,1,4.6,1.5,6.9,1.5
			c4.4,0,8.7-1.8,11.8-4.9l33.3-34.4C884.6,156.6,884.6,146.6,878.3,140.2z M687.6,166.1l-14.3-14.6l14.3-14.6l31.8,14.6
			L687.6,166.1z M829.6,166.1l-31.8-14.6l31.8-14.6l14.3,14.6L829.6,166.1z"/>
		<path class="st1" d="M828,337.1c-12.1-51.5-39.4-64.1-60-65.8c-13.6-1.1-26.2,3.3-36.2,12.8c-14.3,13.3-21.8,35.3-26.1,56.1h-84.3
			c-5.2-7.5-12-14.4-20.5-20.7c-56.9-41.8-177.4-41.8-234.5,0c-8.4,6.2-15.3,13.1-20.5,20.7h-84.6c-0.2-1-0.5-2-0.7-3.1
			c-12.1-51.5-39.4-64.1-60-65.8c-13.6-1.1-26.2,3.3-36.2,12.8c-30.8,28.9-30.8,99.1-30.8,107.1c0,5.2,2.6,10.2,7.1,13.3l49.4,34.4
			c2.8,2,6.1,3,9.3,3s6.4-1,9.2-2.8l50.7-34.4c4.4-3,7.1-7.9,7.2-13.1c0-0.5,0.2-7.9-0.5-18.4H334c-0.8,10.2,0.5,21,4.3,32.1
			c2.3,9.7,13.8,55.3,32.1,95.1L309.2,532c-5.4,2.8-8.9,8.4-8.9,14.6v85.3c0,9,7.4,16.4,16.4,16.4c9,0,16.4-7.4,16.4-16.4v-75.3
			l52.8-27.2c6.9,10.7,14.3,19.8,22.3,26.1c0.2,0.2,0.3,0.2,0.3,0.3c21,15.3,48.1,23,75.1,23s54-7.7,75.1-23
			c0.2-0.2,0.3-0.2,0.3-0.3c8-6.2,15.4-15.3,22.3-26.1l52.8,27.2v75.3c0,9,7.4,16.4,16.4,16.4s16.4-7.4,16.4-16.4v-85.3
			c0-6.1-3.4-11.8-8.9-14.6l-61.2-31.5c18.4-39.9,29.7-85.4,32.1-95.1c3.8-11.2,5.1-22,4.3-32.1h68.2c-0.7,9.3-0.7,16.1-0.5,18.2
			c0,5.2,2.6,10.2,7.1,13.3l49.4,34.4c2.8,2,6.1,3,9.3,3s6.4-1,9.2-2.8l50.7-34.4c4.4-3,7.1-7.9,7.2-13.1
			C833.7,390.3,834.4,364.2,828,337.1L828,337.1z M199.4,405.5l-33-23c0.8-24.9,6.6-61.5,20.3-74.3c3.4-3.1,6.7-4.4,11.3-3.9
			c27.4,2.1,34.8,52.2,35.6,78.2L199.4,405.5z M597.6,395.3c-0.2,0.5-0.3,1-0.5,1.6c-9.8,41.3-34.1,113.7-57.9,132.3
			c-30.2,21.6-81,21.6-111.2,0c-23.8-18.7-48.2-91-57.9-132.3c-0.2-0.5-0.3-1-0.5-1.6c-7.1-20.3-1.8-36.1,16.2-49.4
			c21.2-15.6,57.7-24.9,97.7-24.9s76.6,9.3,97.7,24.9C599.4,359.3,604.6,374.8,597.6,395.3z M766.6,405.5l-33-23
			c0.8-24.9,6.6-61.5,20.3-74.3c3.4-3.1,6.7-4.4,11.3-3.9c27.4,2.1,34.8,52.2,35.6,78.2L766.6,405.5z"/>
	</g>
</g>
</svg>
