<?xml version="1.0" encoding="utf-8"?>
<!-- Generator: Adobe Illustrator 28.0.0, SVG Export Plug-In . SVG Version: 6.00 Build 0)  -->
<svg version="1.1" id="Warstwa_1" xmlns="http://www.w3.org/2000/svg" xmlns:xlink="http://www.w3.org/1999/xlink" x="0px" y="0px"
	 viewBox="0 0 800 800" style="enable-background:new 0 0 800 800;" xml:space="preserve">
<style type="text/css">
	.st0{fill:none;}
	.st1{fill:#FFFFFF;}
</style>
<rect class="st0" width="800" height="800"/>
<g>
	<path class="st1" d="M280,80H80v200l72-72l108,112l60-60L208,152L280,80z M520,80l72,72L480,260l60,60l108-108l72,68V80H520z
		 M540,480l-60,60l108,108l-68,72h200V520l-72,72L540,480L540,480z M260,480L152,588l-72-68v200h200l-72-72l112-108L260,480z"/>
</g>
</svg>
