<?xml version="1.0" encoding="utf-8"?>
<!-- Generator: Adobe Illustrator 28.0.0, SVG Export Plug-In . SVG Version: 6.00 Build 0)  -->
<svg version="1.1" id="Warstwa_1" xmlns="http://www.w3.org/2000/svg" xmlns:xlink="http://www.w3.org/1999/xlink" x="0px" y="0px"
	 viewBox="0 0 800 800" style="enable-background:new 0 0 800 800;" xml:space="preserve">
<style type="text/css">
	.st0{fill:#FFFFFF;}
</style>
<rect width="800" height="800"/>
<g>
	<path class="st0" d="M136,80l-56,56l112,112l-72,72h200V120l-72,72L136,80z M608,248l112-112l-56-56L552,192l-72-72v200h200
		L608,248L608,248z M192,552L80,664l56,56l112-112l72,72V480H120L192,552z M680,480H480v200l72-72l112,112l56-56L608,552L680,480z"
		/>
</g>
</svg>
